HIERARCHY
ROOT Hips
{
	OFFSET 0.000000 95.729000 0.000000
	CHANNELS 6 Xposition Yposition Zposition Yrotation Xrotation Zrotation
	JOINT RightUpLeg
	{
		OFFSET -9.625000 -1.639000 0.000000
		CHANNELS 3 Yrotation Xrotation Zrotation
		JOINT RightLeg
		{
			OFFSET 0.000000 -41.481000 0.000000
			CHANNELS 3 Yrotation Xrotation Zrotation
			JOINT RightFoot
			{
				OFFSET 0.000000 -43.120000 0.000000
				CHANNELS 3 Yrotation Xrotation Zrotation
				End Site
				{
					OFFSET 0.000000 -7.850000 17.850000
				}
			}
		}
	}
	JOINT LeftUpLeg
	{
		OFFSET 9.625000 -1.639000 0.000000
		CHANNELS 3 Yrotation Xrotation Zrotation
		JOINT LeftLeg
		{
			OFFSET 0.000000 -43.120000 0.000000
			CHANNELS 3 Yrotation Xrotation Zrotation
			JOINT LeftFoot
			{
				OFFSET 0.000000 -43.120000 0.000000
				CHANNELS 3 Yrotation Xrotation Zrotation
				End Site
				{
					OFFSET 0.000000 -7.850000 17.850000
				}
			}
		}
	}
	JOINT Spine
	{
		OFFSET 0.000000 16.395000 0.000000
		CHANNELS 3 Yrotation Xrotation Zrotation
		JOINT Spine1
		{
			OFFSET 0.000000 10.023000 0.000000
			CHANNELS 3 Yrotation Xrotation Zrotation
			JOINT Spine2
			{
				OFFSET 0.000000 10.437000 0.000000
				CHANNELS 3 Yrotation Xrotation Zrotation
				JOINT Spine3
				{
					OFFSET 0.000000 10.023000 0.000000
					CHANNELS 3 Yrotation Xrotation Zrotation
					JOINT Neck
					{
						OFFSET 0.000000 10.713000 0.000000
						CHANNELS 3 Yrotation Xrotation Zrotation
						JOINT Head
						{
							OFFSET 0.000000 9.720000 0.000000
							CHANNELS 3 Yrotation Xrotation Zrotation
							End Site
							{
								OFFSET 0.000000 16.450000 0.000000
							}
						}
					}
					JOINT RightShoulder
					{
						OFFSET -3.275000 7.142000 0.000000
						CHANNELS 3 Yrotation Xrotation Zrotation
						JOINT RightArm
						{
							OFFSET -13.100000 0.000000 0.000000
							CHANNELS 3 Yrotation Xrotation Zrotation
							JOINT RightForeArm
							{
								OFFSET -27.250000 0.000000 0.000000
								CHANNELS 3 Yrotation Xrotation Zrotation
								JOINT RightHand
								{
									OFFSET -26.750000 0.000000 0.000000
									CHANNELS 3 Yrotation Xrotation Zrotation
									End Site
									{
										OFFSET -3.479000 0.532000 0.778000
									}
								}
							}
						}
					}
					JOINT LeftShoulder
					{
						OFFSET 3.275000 7.142000 0.000000
						CHANNELS 3 Yrotation Xrotation Zrotation
						JOINT LeftArm
						{
							OFFSET 13.100000 0.000000 0.000000
							CHANNELS 3 Yrotation Xrotation Zrotation
							JOINT LeftForeArm
							{
								OFFSET 27.250000 0.000000 0.000000
								CHANNELS 3 Yrotation Xrotation Zrotation
								JOINT LeftHand
								{
									OFFSET 26.750000 0.000000 0.000000
									CHANNELS 3 Yrotation Xrotation Zrotation
									End Site
									{
										OFFSET 3.479000 0.532000 0.778000
									}
								}
							}
						}
					}
				}
			}
		}
	}
}
MOTION
Frames: 10
Frame Time: 0.01
0.0 94.7 0.0 -146.22 -1.0 -0.86 5.23 -7.62 -3.65 0.0 23.22 0.0 -7.02 -13.77 6.99 13.22 -14.18 5.0 0.0 27.54 0.0 7.45 -14.01 -0.82 3.03 -3.01 -1.71 0.76 -0.75 -0.41 1.29 -1.25 -0.69 0.51 0.84 0.39 0.52 0.85 0.39 11.66 14.62 8.73 22.81 -6.16 -3.74 64.03 -54.27 -2.49 79.77 23.59 6.3 -27.13 20.02 -3.58 3.72 -1.1 -6.6 -26.67 7.03 -70.96 -2.85 -4.36 -2.25 -8.21 32.31 9.44
0.0 94.7 0.0 -146.1 -1.03 -0.84 5.19 -7.56 -3.63 0.0 23.22 0.0 -7.12 -13.81 6.98 13.18 -14.14 5.02 -0.0 27.51 -0.0 7.54 -14.0 -0.79 2.97 -2.99 -1.74 0.75 -0.75 -0.42 1.26 -1.24 -0.7 0.51 0.84 0.4 0.52 0.85 0.4 11.56 14.56 8.78 22.83 -6.21 -3.74 64.02 -54.25 -2.55 79.86 23.52 6.24 -27.16 20.05 -3.35 3.69 -1.11 -6.62 -26.91 7.03 -71.09 -2.89 -4.12 -2.21 -8.25 32.34 9.37
0.0 94.71 0.0 -145.97 -1.06 -0.83 5.08 -7.48 -3.61 0.0 23.18 0.0 -7.16 -13.82 6.94 13.44 -14.11 5.03 -0.0 27.47 -0.0 7.67 -14.02 -0.64 2.9 -2.97 -1.74 0.73 -0.75 -0.42 1.23 -1.23 -0.71 0.5 0.84 0.4 0.51 0.84 0.4 11.49 14.5 8.8 22.88 -6.25 -3.78 63.99 -54.22 -2.58 79.8 23.46 6.23 -26.81 20.06 -3.06 3.68 -1.13 -6.67 -27.14 7.01 -71.23 -2.88 -3.89 -2.17 -8.04 31.92 9.57
0.0 94.72 0.0 -145.86 -1.09 -0.81 4.98 -7.44 -3.6 0.0 23.2 0.0 -7.18 -13.86 6.91 13.53 -14.09 5.04 0.0 27.45 -0.0 7.62 -14.02 -0.59 2.83 -2.95 -1.76 0.71 -0.74 -0.43 1.21 -1.22 -0.71 0.5 0.84 0.4 0.51 0.84 0.4 11.43 14.46 8.84 22.94 -6.3 -3.82 63.96 -54.2 -2.61 79.73 23.4 6.22 -26.7 20.05 -2.96 3.7 -1.18 -6.72 -27.34 6.98 -71.37 -2.88 -3.62 -2.12 -7.83 31.51 9.76
0.0 94.72 0.0 -145.76 -1.12 -0.79 4.94 -7.41 -3.58 0.0 23.24 0.0 -7.26 -13.9 6.88 13.85 -14.09 5.06 -0.0 27.43 -0.0 7.33 -14.0 -0.49 2.8 -2.94 -1.79 0.71 -0.74 -0.43 1.19 -1.22 -0.73 0.5 0.84 0.4 0.5 0.84 0.41 11.36 14.43 8.88 22.95 -6.35 -3.82 63.95 -54.18 -2.65 79.78 23.38 6.15 -26.77 20.07 -2.84 3.67 -1.22 -6.73 -27.55 6.93 -71.52 -2.83 -3.39 -2.07 -7.92 31.63 9.64
0.0 94.72 0.0 -145.66 -1.15 -0.77 4.91 -7.38 -3.57 -0.0 23.28 -0.0 -7.34 -13.95 6.86 13.91 -14.07 5.07 0.0 27.41 0.0 7.3 -13.98 -0.45 2.76 -2.93 -1.82 0.7 -0.73 -0.44 1.18 -1.22 -0.74 0.49 0.83 0.41 0.5 0.84 0.41 11.3 14.41 8.93 22.96 -6.38 -3.83 63.94 -54.17 -2.68 79.86 23.34 6.09 -26.87 20.11 -2.74 3.65 -1.27 -6.75 -27.71 6.89 -71.67 -2.79 -3.17 -2.03 -7.98 31.76 9.52
0.0 94.71 0.0 -145.56 -1.18 -0.75 4.98 -7.36 -3.54 -0.0 23.34 -0.0 -7.52 -14.0 6.87 13.9 -14.05 5.09 0.0 27.39 0.0 7.21 -13.95 -0.46 2.8 -2.95 -1.88 0.71 -0.74 -0.46 1.2 -1.22 -0.77 0.48 0.84 0.41 0.49 0.84 0.41 11.18 14.46 9.01 22.8 -6.35 -3.74 63.94 -54.17 -2.68 79.86 23.34 6.09 -26.87 20.11 -2.74 3.5 -1.21 -6.68 -27.71 6.89 -71.67 -2.79 -3.17 -2.03 -7.98 31.76 9.52
0.0 94.71 0.0 -145.47 -1.21 -0.72 4.92 -7.34 -3.54 0.0 23.4 0.0 -7.55 -14.05 6.86 13.88 -14.01 5.1 -0.0 27.36 -0.0 7.14 -13.92 -0.47 2.79 -2.94 -1.9 0.7 -0.74 -0.46 1.19 -1.22 -0.78 0.48 0.84 0.41 0.49 0.84 0.42 11.13 14.47 9.03 22.74 -6.33 -3.72 63.94 -54.17 -2.68 79.86 23.34 6.09 -26.87 20.11 -2.74 3.44 -1.19 -6.67 -27.71 6.89 -71.67 -2.79 -3.17 -2.03 -7.98 31.76 9.52
0.0 94.71 0.0 -145.47 -1.21 -0.72 4.91 -7.36 -3.51 0.0 23.44 0.0 -7.54 -14.08 6.83 13.86 -14.02 5.13 -0.0 27.36 0.0 7.14 -13.91 -0.5 3.15 -3.08 -1.98 0.8 -0.77 -0.48 1.34 -1.27 -0.8 0.5 0.85 0.42 0.51 0.85 0.42 11.57 14.63 9.2 22.73 -6.47 -3.68 64.1 -54.59 -2.94 80.52 22.79 5.42 -27.11 20.89 -0.14 3.4 -1.79 -6.94 -28.94 6.41 -73.24 -3.27 -2.79 -1.73 -8.8 32.58 9.37
0.0 94.7 0.0 -145.47 -1.21 -0.72 4.89 -7.38 -3.49 -0.0 23.48 -0.0 -7.53 -14.1 6.81 13.85 -14.02 5.17 -0.0 27.36 -0.0 7.14 -13.91 -0.53 3.18 -3.09 -1.99 0.8 -0.78 -0.48 1.36 -1.28 -0.81 0.5 0.85 0.42 0.51 0.85 0.42 11.64 14.67 9.21 22.71 -6.47 -3.67 64.09 -54.62 -2.92 80.55 22.73 5.37 -27.17 20.95 0.01 3.42 -1.81 -6.95 -29.0 6.4 -73.31 -3.41 -2.76 -1.73 -8.81 32.6 9.44
